<?xml version="1.0" standalone="no"?>
<!DOCTYPE svg PUBLIC "-//W3C//DTD SVG 20010904//EN"
 "http://www.w3.org/TR/2001/REC-SVG-20010904/DTD/svg10.dtd">
<svg version="1.0" xmlns="http://www.w3.org/2000/svg"
 width="536.000000pt" height="536.000000pt" viewBox="0 0 536.000000 536.000000"
 preserveAspectRatio="xMidYMid meet">

<g transform="translate(0.000000,536.000000) scale(0.100000,-0.100000)"
fill="#000000" stroke="none">
<path d="M4005 5289 c-134 -48 -210 -87 -271 -140 -35 -29 -82 -48 -189 -73
-331 -80 -699 -393 -881 -749 l-56 -109 -77 74 c-42 41 -93 84 -114 96 -95 54
-312 56 -462 4 -49 -17 -91 -29 -93 -27 -2 2 -10 36 -18 76 -25 132 -79 207
-189 266 -89 47 -204 67 -345 60 -121 -6 -169 -17 -422 -90 -122 -36 -188 -49
-302 -61 -80 -8 -150 -17 -155 -21 -24 -14 -9 -74 43 -180 158 -321 362 -522
574 -566 44 -9 83 -8 196 6 270 32 442 117 542 267 60 90 147 143 301 183 191
50 374 -45 430 -222 16 -51 16 -62 -1 -196 -25 -194 -31 -380 -17 -518 14
-144 34 -214 66 -235 23 -15 27 -15 51 1 26 17 27 19 21 99 -3 44 -11 126 -18
181 -25 223 22 549 110 762 117 283 398 584 666 713 85 41 190 77 240 82 l30
3 8 -95 c16 -200 87 -391 187 -503 94 -105 249 -159 452 -158 226 1 583 87
658 158 23 22 25 29 24 121 -1 78 -6 110 -26 162 -75 193 -195 363 -331 466
-77 58 -221 128 -307 149 -83 20 -285 29 -325 14z m351 -153 c179 -58 346
-210 443 -403 41 -83 81 -203 81 -246 0 -35 -1 -35 -69 -56 -320 -97 -599
-113 -754 -44 -143 64 -245 258 -264 500 -7 96 -2 102 67 78 54 -19 60 -27 60
-90 1 -67 22 -167 43 -199 20 -30 39 -33 58 -10 11 13 10 26 -4 79 -19 71 -22
151 -6 160 5 4 62 -19 125 -50 113 -55 116 -57 108 -83 -14 -48 -8 -86 21
-135 32 -56 66 -77 90 -57 21 18 19 40 -10 82 -52 77 -13 92 71 27 37 -28 59
-39 73 -34 56 17 16 72 -119 165 -50 33 -90 65 -90 71 0 28 155 40 219 18 27
-9 35 -8 51 6 30 28 24 44 -24 66 -70 30 -122 33 -206 9 -176 -48 -161 -49
-327 10 -81 29 -154 55 -161 59 -16 9 118 87 173 100 22 6 92 9 155 7 91 -3
132 -9 196 -30z m-2922 -496 c111 -13 174 -40 227 -97 53 -58 75 -112 70 -171
-1 -17 -105 -64 -132 -60 -15 2 -27 17 -40 52 -23 62 -49 89 -111 116 -90 39
-188 36 -188 -5 0 -21 41 -45 77 -45 74 0 153 -56 153 -109 0 -15 -10 -23 -40
-32 -53 -16 -301 3 -455 35 -115 24 -145 22 -145 -13 0 -10 6 -23 13 -29 18
-15 117 -39 258 -61 142 -23 159 -28 159 -45 0 -16 -69 -55 -145 -80 -48 -17
-61 -26 -63 -45 -2 -13 1 -27 8 -31 19 -12 101 8 167 40 57 28 80 49 125 114
14 19 30 26 75 31 32 4 101 15 153 25 52 10 98 15 103 11 14 -13 -54 -100
-114 -145 -106 -80 -254 -120 -439 -121 -107 0 -119 2 -175 29 -83 41 -206
165 -292 297 -72 110 -96 159 -84 176 3 5 44 15 91 22 77 12 163 35 400 107
148 45 201 50 344 34z"/>
<path d="M3242 4193 c-40 -78 -45 -108 -32 -189 13 -85 55 -173 115 -241 69
-78 292 -253 324 -253 4 0 59 43 120 96 101 87 115 95 135 86 70 -32 346 -295
415 -396 l33 -48 -106 -107 -107 -107 65 -125 c65 -126 109 -237 146 -366 l21
-73 154 0 154 0 8 -48 c10 -61 10 -430 0 -504 -14 -99 -21 -102 -189 -106
l-144 -3 -23 -77 c-32 -111 -85 -231 -158 -358 -34 -62 -63 -115 -63 -119 0
-5 45 -54 101 -111 l101 -102 -30 -44 c-58 -84 -282 -297 -396 -376 l-59 -41
-108 101 -109 101 -128 -60 c-159 -76 -236 -106 -357 -140 -93 -26 -95 -28
-96 -58 -1 -65 -16 -266 -20 -270 -3 -2 -74 -9 -159 -16 -142 -10 -276 -8
-452 8 l-68 6 0 151 0 151 -82 23 c-106 30 -288 102 -401 159 -76 38 -91 42
-105 31 -9 -7 -58 -50 -109 -96 -51 -45 -96 -82 -101 -82 -18 0 -106 66 -196
146 -103 91 -202 198 -247 265 l-29 44 107 107 107 108 -22 37 c-77 129 -154
313 -188 446 l-16 67 -158 0 -158 0 -9 78 c-19 183 -3 536 27 566 6 6 73 13
156 16 l146 5 47 130 c44 119 127 295 183 387 l23 36 -98 101 c-56 57 -97 108
-97 120 0 43 205 254 374 385 l98 77 113 -106 114 -106 81 46 c166 91 217 143
245 250 19 75 20 234 1 279 -23 56 -101 99 -129 72 -20 -20 -34 -99 -18 -104
6 -2 19 -11 27 -20 14 -13 15 -30 10 -105 -8 -106 -22 -143 -66 -180 -41 -35
-103 -67 -129 -67 -12 0 -61 39 -116 90 -114 107 -124 109 -211 49 -185 -130
-369 -305 -503 -478 l-72 -94 110 -111 110 -111 -47 -86 c-26 -47 -67 -138
-92 -202 -33 -85 -50 -117 -65 -121 -11 -3 -83 -6 -161 -6 l-141 0 -16 -93
c-42 -232 -47 -539 -13 -727 9 -47 16 -86 16 -87 0 -2 71 -3 158 -3 l158 0 38
-107 c21 -60 59 -153 86 -208 l48 -100 -112 -106 -111 -106 17 -34 c28 -58
180 -239 281 -335 77 -74 275 -233 335 -268 8 -5 48 25 115 86 56 51 109 99
118 106 14 10 31 6 100 -26 118 -55 153 -68 249 -101 l85 -28 7 -49 c3 -27 8
-95 11 -152 2 -56 7 -105 10 -108 16 -16 185 -36 352 -41 187 -6 405 6 506 28
l47 10 6 62 c3 34 8 103 12 154 l6 91 106 37 c58 21 155 60 215 86 91 41 112
47 126 37 9 -7 62 -54 117 -105 l102 -93 80 57 c213 153 390 320 521 492 l64
83 -109 109 -108 108 62 128 c33 70 75 165 92 209 l31 82 154 4 c85 2 157 7
161 11 4 3 16 52 27 109 18 89 21 139 21 368 0 191 -5 286 -15 340 l-15 75
-156 5 c-86 3 -159 7 -162 10 -3 3 -19 46 -36 95 -18 50 -55 139 -83 198 l-51
108 112 112 112 112 -63 85 c-114 154 -298 339 -448 450 -138 102 -126 101
-210 28 -115 -100 -151 -128 -167 -128 -24 0 -116 76 -197 162 -58 61 -78 91
-90 130 -21 70 -19 126 5 171 11 21 18 42 15 47 -3 6 -26 23 -50 40 l-44 31
-29 -58z"/>
<path d="M3000 3291 c-46 -10 -91 -34 -135 -72 l-35 -31 0 -1002 0 -1002 50
-81 c71 -116 130 -158 267 -194 134 -34 279 -22 383 31 19 10 68 45 109 78 50
41 86 63 111 67 55 9 151 57 187 93 37 37 62 104 69 187 8 96 11 101 75 149
71 52 133 130 150 187 10 33 9 52 -9 123 l-21 85 25 68 c14 37 28 100 31 139
7 91 -15 144 -84 204 l-50 43 5 88 c7 122 -8 170 -73 235 -35 35 -71 59 -122
80 l-71 29 -4 85 c-3 77 -6 91 -36 138 -43 66 -96 104 -197 143 -44 16 -116
48 -160 69 -114 56 -179 70 -315 69 -63 -1 -131 -4 -150 -8z m268 -91 c28 -5
67 -16 88 -25 l36 -15 -61 -45 c-92 -67 -143 -159 -109 -193 22 -22 39 -13
112 57 39 38 84 74 99 80 16 6 58 11 95 11 99 -1 182 -43 218 -112 18 -34 18
-112 1 -127 -8 -6 -47 -13 -88 -17 -142 -12 -207 -41 -283 -125 -71 -80 -118
-236 -80 -273 9 -9 26 -16 37 -14 21 3 30 20 71 139 22 61 75 122 132 149 41
20 56 22 167 17 80 -3 139 -11 172 -22 72 -26 130 -76 151 -131 17 -46 17 -49
-6 -139 -12 -51 -20 -100 -17 -108 3 -8 31 -26 61 -40 65 -30 96 -72 96 -133
0 -67 -28 -131 -80 -183 -56 -57 -123 -81 -219 -81 -39 0 -72 -5 -79 -12 -18
-18 -15 -65 5 -72 38 -15 179 -7 246 14 38 12 75 19 83 16 9 -4 14 -21 14 -52
0 -81 -53 -150 -157 -203 -46 -23 -43 -14 -64 -176 -18 -140 -43 -167 -193
-206 -67 -17 -80 -26 -161 -101 -73 -67 -122 -83 -265 -83 -115 0 -130 2 -183
27 -31 15 -71 42 -88 60 -94 100 -118 283 -47 364 38 43 71 61 162 86 101 28
127 56 86 93 -28 25 -96 15 -204 -29 -48 -20 -88 -36 -91 -36 -3 0 -4 359 -3
798 l3 797 38 18 c68 34 207 46 305 27z"/>
<path d="M3671 2526 c-9 -11 -9 -29 -1 -77 15 -83 -4 -136 -66 -183 -56 -43
-126 -60 -218 -54 -101 8 -180 40 -268 110 -23 18 -33 20 -55 12 -75 -26 -18
-97 142 -178 90 -46 102 -56 123 -96 24 -48 61 -92 98 -117 32 -21 160 -28
223 -13 52 12 52 12 49 49 l-3 36 -112 5 c-100 4 -115 8 -135 28 -32 31 -15
55 45 64 90 13 206 88 247 160 51 91 29 268 -33 268 -14 0 -30 -6 -36 -14z"/>
<path d="M3224 1863 c-25 -5 -35 -29 -24 -59 7 -17 23 -22 94 -32 168 -22 251
-84 271 -200 9 -54 0 -65 -84 -103 -83 -38 -132 -85 -166 -162 -32 -70 -40
-162 -15 -177 37 -24 54 -8 82 80 32 100 74 146 166 180 56 21 86 22 168 5 26
-6 34 -3 48 16 9 13 16 31 16 40 0 21 -34 51 -73 64 -28 9 -33 16 -43 65 -15
71 -27 102 -65 156 -61 89 -247 152 -375 127z"/>
<path d="M1780 3174 c-167 -45 -324 -163 -390 -294 -55 -109 -70 -179 -71
-320 0 -236 60 -428 213 -675 94 -151 219 -287 398 -433 246 -200 595 -422
662 -422 l26 0 4 893 3 892 -65 85 c-36 47 -93 107 -126 133 -79 65 -222 133
-304 146 -94 15 -285 12 -350 -5z m356 -98 c128 -34 267 -129 349 -238 l45
-61 -2 -792 c-2 -437 -7 -797 -11 -801 -11 -11 -79 26 -226 124 -234 156 -429
318 -551 457 -151 172 -276 430 -315 649 -18 107 -19 167 -1 267 19 105 59
181 136 260 72 74 123 104 220 130 82 22 282 25 356 5z"/>
</g>
</svg>
